<mxfile host="app.diagrams.net" modified="2024-04-07T10:00:00.000Z" agent="5.0 (Windows NT 10.0; Win64; x64) AppleWebKit/537.36 (KHTML, like Gecko) Chrome/86.0.4240.198 Safari/537.36" etag="3i8xtCoHiJ_Nh_V2rJkE" version="20.6.0">
  <diagram id="C5RBs43oDa-KdzZeNtuy" name="Firebase Chats">
    <mxGraphModel dx="1422" dy="762" grid="1" gridSize="10" guides="1" tooltips="1" connect="1" arrows="1" fold="1" page="1" pageScale="1" pageWidth="827" pageHeight="1169" math="0" shadow="0">
      <root>
        <mxCell id="WIyWlLk6GJQsqaUBKTNV-0" />
        <mxCell id="WIyWlLk6GJQsqaUBKTNV-1" parent="WIyWlLk6GJQsqaUBKTNV-0" />

        <!-- CHATS COLLECTION -->
        <mxCell id="chats-title" value="&lt;h2&gt;Colección: chats&lt;/h2&gt;" style="text;html=1;strokeColor=none;fillColor=none;align=left;verticalAlign=middle;whiteSpace=wrap;rounded=0;fontColor=#B85450;" vertex="1" parent="WIyWlLk6GJQsqaUBKTNV-1">
          <mxGeometry x="40" y="40" width="250" height="30" as="geometry" />
        </mxCell>

        <mxCell id="chats-document" value="Documento: chatId" style="swimlane;fontStyle=0;childLayout=stackLayout;horizontal=1;startSize=30;horizontalStack=0;resizeParent=1;resizeParentMax=0;resizeLast=0;collapsible=1;marginBottom=0;whiteSpace=wrap;html=1;fillColor=#f8cecc;strokeColor=#b85450;" vertex="1" parent="WIyWlLk6GJQsqaUBKTNV-1">
          <mxGeometry x="40" y="80" width="300" height="230" as="geometry" />
        </mxCell>
        <mxCell id="chats-participants" value="participants: array&lt;string&gt;" style="text;strokeColor=none;fillColor=none;align=left;verticalAlign=middle;spacingLeft=4;spacingRight=4;overflow=hidden;points=[[0,0.5],[1,0.5]];portConstraint=eastwest;rotatable=0;whiteSpace=wrap;html=1;" vertex="1" parent="chats-document">
          <mxGeometry y="30" width="300" height="20" as="geometry" />
        </mxCell>
        <mxCell id="chats-createdAt" value="createdAt: timestamp" style="text;strokeColor=none;fillColor=none;align=left;verticalAlign=middle;spacingLeft=4;spacingRight=4;overflow=hidden;points=[[0,0.5],[1,0.5]];portConstraint=eastwest;rotatable=0;whiteSpace=wrap;html=1;" vertex="1" parent="chats-document">
          <mxGeometry y="50" width="300" height="20" as="geometry" />
        </mxCell>
        <mxCell id="chats-lastMessageTimestamp" value="lastMessageTimestamp: timestamp" style="text;strokeColor=none;fillColor=none;align=left;verticalAlign=middle;spacingLeft=4;spacingRight=4;overflow=hidden;points=[[0,0.5],[1,0.5]];portConstraint=eastwest;rotatable=0;whiteSpace=wrap;html=1;" vertex="1" parent="chats-document">
          <mxGeometry y="70" width="300" height="20" as="geometry" />
        </mxCell>
        <mxCell id="chats-lastMessage" value="lastMessage: string" style="text;strokeColor=none;fillColor=none;align=left;verticalAlign=middle;spacingLeft=4;spacingRight=4;overflow=hidden;points=[[0,0.5],[1,0.5]];portConstraint=eastwest;rotatable=0;whiteSpace=wrap;html=1;" vertex="1" parent="chats-document">
          <mxGeometry y="90" width="300" height="20" as="geometry" />
        </mxCell>
        <mxCell id="chats-lastMessageSenderId" value="lastMessageSenderId: string" style="text;strokeColor=none;fillColor=none;align=left;verticalAlign=middle;spacingLeft=4;spacingRight=4;overflow=hidden;points=[[0,0.5],[1,0.5]];portConstraint=eastwest;rotatable=0;whiteSpace=wrap;html=1;" vertex="1" parent="chats-document">
          <mxGeometry y="110" width="300" height="20" as="geometry" />
        </mxCell>
        <mxCell id="chats-unreadCount" value="unreadCount: number" style="text;strokeColor=none;fillColor=none;align=left;verticalAlign=middle;spacingLeft=4;spacingRight=4;overflow=hidden;points=[[0,0.5],[1,0.5]];portConstraint=eastwest;rotatable=0;whiteSpace=wrap;html=1;" vertex="1" parent="chats-document">
          <mxGeometry y="130" width="300" height="20" as="geometry" />
        </mxCell>
        <mxCell id="chats-isGroupChat" value="isGroupChat: boolean (default: false)" style="text;strokeColor=none;fillColor=none;align=left;verticalAlign=middle;spacingLeft=4;spacingRight=4;overflow=hidden;points=[[0,0.5],[1,0.5]];portConstraint=eastwest;rotatable=0;whiteSpace=wrap;html=1;" vertex="1" parent="chats-document">
          <mxGeometry y="150" width="300" height="20" as="geometry" />
        </mxCell>
        <mxCell id="chats-name" value="name: string (solo para grupos)" style="text;strokeColor=none;fillColor=none;align=left;verticalAlign=middle;spacingLeft=4;spacingRight=4;overflow=hidden;points=[[0,0.5],[1,0.5]];portConstraint=eastwest;rotatable=0;whiteSpace=wrap;html=1;" vertex="1" parent="chats-document">
          <mxGeometry y="170" width="300" height="20" as="geometry" />
        </mxCell>
        <mxCell id="chats-planId" value="planId: string | null (si está relacionado con un plan)" style="text;strokeColor=none;fillColor=none;align=left;verticalAlign=middle;spacingLeft=4;spacingRight=4;overflow=hidden;points=[[0,0.5],[1,0.5]];portConstraint=eastwest;rotatable=0;whiteSpace=wrap;html=1;" vertex="1" parent="chats-document">
          <mxGeometry y="190" width="300" height="20" as="geometry" />
        </mxCell>
        <mxCell id="chats-active" value="active: boolean (default: true)" style="text;strokeColor=none;fillColor=none;align=left;verticalAlign=middle;spacingLeft=4;spacingRight=4;overflow=hidden;points=[[0,0.5],[1,0.5]];portConstraint=eastwest;rotatable=0;whiteSpace=wrap;html=1;" vertex="1" parent="chats-document">
          <mxGeometry y="210" width="300" height="20" as="geometry" />
        </mxCell>

        <!-- MESSAGES SUBCOLLECTION -->
        <mxCell id="messages-title" value="&lt;h2&gt;Subcollección: messages&lt;/h2&gt;" style="text;html=1;strokeColor=none;fillColor=none;align=left;verticalAlign=middle;whiteSpace=wrap;rounded=0;fontColor=#B85450;" vertex="1" parent="WIyWlLk6GJQsqaUBKTNV-1">
          <mxGeometry x="380" y="80" width="250" height="30" as="geometry" />
        </mxCell>

        <mxCell id="messages-document" value="Documento: messageId" style="swimlane;fontStyle=0;childLayout=stackLayout;horizontal=1;startSize=30;horizontalStack=0;resizeParent=1;resizeParentMax=0;resizeLast=0;collapsible=1;marginBottom=0;whiteSpace=wrap;html=1;fillColor=#f8cecc;strokeColor=#b85450;" vertex="1" parent="WIyWlLk6GJQsqaUBKTNV-1">
          <mxGeometry x="380" y="120" width="300" height="150" as="geometry" />
        </mxCell>
        <mxCell id="messages-senderId" value="senderId: string" style="text;strokeColor=none;fillColor=none;align=left;verticalAlign=middle;spacingLeft=4;spacingRight=4;overflow=hidden;points=[[0,0.5],[1,0.5]];portConstraint=eastwest;rotatable=0;whiteSpace=wrap;html=1;" vertex="1" parent="messages-document">
          <mxGeometry y="30" width="300" height="20" as="geometry" />
        </mxCell>
        <mxCell id="messages-content" value="content: string" style="text;strokeColor=none;fillColor=none;align=left;verticalAlign=middle;spacingLeft=4;spacingRight=4;overflow=hidden;points=[[0,0.5],[1,0.5]];portConstraint=eastwest;rotatable=0;whiteSpace=wrap;html=1;" vertex="1" parent="messages-document">
          <mxGeometry y="50" width="300" height="20" as="geometry" />
        </mxCell>
        <mxCell id="messages-timestamp" value="timestamp: timestamp" style="text;strokeColor=none;fillColor=none;align=left;verticalAlign=middle;spacingLeft=4;spacingRight=4;overflow=hidden;points=[[0,0.5],[1,0.5]];portConstraint=eastwest;rotatable=0;whiteSpace=wrap;html=1;" vertex="1" parent="messages-document">
          <mxGeometry y="70" width="300" height="20" as="geometry" />
        </mxCell>
        <mxCell id="messages-isRead" value="isRead: boolean (default: false)" style="text;strokeColor=none;fillColor=none;align=left;verticalAlign=middle;spacingLeft=4;spacingRight=4;overflow=hidden;points=[[0,0.5],[1,0.5]];portConstraint=eastwest;rotatable=0;whiteSpace=wrap;html=1;" vertex="1" parent="messages-document">
          <mxGeometry y="90" width="300" height="20" as="geometry" />
        </mxCell>
        <mxCell id="messages-system" value="system: boolean (default: false)" style="text;strokeColor=none;fillColor=none;align=left;verticalAlign=middle;spacingLeft=4;spacingRight=4;overflow=hidden;points=[[0,0.5],[1,0.5]];portConstraint=eastwest;rotatable=0;whiteSpace=wrap;html=1;" vertex="1" parent="messages-document">
          <mxGeometry y="110" width="300" height="20" as="geometry" />
        </mxCell>
        <mxCell id="messages-mediaUrl" value="mediaUrl: string | null (para imágenes o archivos)" style="text;strokeColor=none;fillColor=none;align=left;verticalAlign=middle;spacingLeft=4;spacingRight=4;overflow=hidden;points=[[0,0.5],[1,0.5]];portConstraint=eastwest;rotatable=0;whiteSpace=wrap;html=1;" vertex="1" parent="messages-document">
          <mxGeometry y="130" width="300" height="20" as="geometry" />
        </mxCell>

        <!-- DESIGN NOTES -->
        <mxCell id="design-notes" value="&lt;h3&gt;Notas de diseño - Colección Chats&lt;/h3&gt;&lt;p&gt;1. La estructura soporta tanto chats individuales como grupales&lt;br&gt;2. El array 'participants' contiene IDs de todos los usuarios en la conversación&lt;br&gt;3. La información de último mensaje facilita mostrar previews de conversaciones&lt;br&gt;4. Los mensajes se almacenan en una subcollección para mejor escalabilidad&lt;br&gt;5. El campo 'system' en mensajes permite mensajes informativos/automáticos&lt;/p&gt;" style="shape=note;strokeWidth=2;fontSize=14;size=20;whiteSpace=wrap;html=1;fillColor=#fff2cc;strokeColor=#d6b656;fontColor=#666600;align=left;spacing=8;" vertex="1" parent="WIyWlLk6GJQsqaUBKTNV-1">
          <mxGeometry x="380" y="290" width="400" height="150" as="geometry" />
        </mxCell>

        <!-- INDEXES -->
        <mxCell id="indexes-title" value="&lt;h2&gt;Índices recomendados&lt;/h2&gt;" style="text;html=1;strokeColor=none;fillColor=none;align=left;verticalAlign=middle;whiteSpace=wrap;rounded=0;fontColor=#B85450;" vertex="1" parent="WIyWlLk6GJQsqaUBKTNV-1">
          <mxGeometry x="40" y="330" width="250" height="30" as="geometry" />
        </mxCell>

        <mxCell id="indexes-list" value="&lt;ul&gt;&lt;li&gt;participants ARRAY_CONTAINS, lastMessageTimestamp DESC&lt;/li&gt;&lt;li&gt;planId, createdAt DESC&lt;/li&gt;&lt;/ul&gt;" style="text;html=1;strokeColor=none;fillColor=none;align=left;verticalAlign=top;whiteSpace=wrap;rounded=0;" vertex="1" parent="WIyWlLk6GJQsqaUBKTNV-1">
          <mxGeometry x="40" y="370" width="300" height="60" as="geometry" />
        </mxCell>

        <!-- MESSAGES INDEXES -->
        <mxCell id="messages-indexes-title" value="&lt;h3&gt;Índices para subcollección 'messages'&lt;/h3&gt;" style="text;html=1;strokeColor=none;fillColor=none;align=left;verticalAlign=middle;whiteSpace=wrap;rounded=0;fontColor=#B85450;" vertex="1" parent="WIyWlLk6GJQsqaUBKTNV-1">
          <mxGeometry x="40" y="440" width="250" height="30" as="geometry" />
        </mxCell>

        <mxCell id="messages-indexes-list" value="&lt;ul&gt;&lt;li&gt;timestamp DESC (para paginación de mensajes)&lt;/li&gt;&lt;li&gt;senderId, timestamp DESC&lt;/li&gt;&lt;li&gt;isRead, timestamp DESC (para contar mensajes no leídos)&lt;/li&gt;&lt;/ul&gt;" style="text;html=1;strokeColor=none;fillColor=none;align=left;verticalAlign=top;whiteSpace=wrap;rounded=0;" vertex="1" parent="WIyWlLk6GJQsqaUBKTNV-1">
          <mxGeometry x="40" y="480" width="300" height="70" as="geometry" />
        </mxCell>

      </root>
    </mxGraphModel>
  </diagram>
</mxfile>